<svg width="32" height="32" viewBox="0 0 32 32" fill="none" xmlns="http://www.w3.org/2000/svg">
<path d="M2.66797 16.8134H25.3346" stroke="#FFFEFB" stroke-width="2" stroke-miterlimit="10" stroke-linecap="round" stroke-linejoin="round"/>
<path d="M25.3346 13.7066V23.2399C25.2946 27.0399 24.2546 27.9999 20.2946 27.9999H7.70801C3.68134 27.9999 2.66797 26.9999 2.66797 23.0266V13.7066C2.66797 10.1066 3.50797 8.94661 6.66797 8.75994C6.98797 8.74661 7.33467 8.73328 7.70801 8.73328H20.2946C24.3213 8.73328 25.3346 9.73328 25.3346 13.7066Z" stroke="#FFFEFB" stroke-width="2" stroke-linecap="round" stroke-linejoin="round"/>
<path d="M29.3346 8.97333V18.2933C29.3346 21.8933 28.4946 23.0533 25.3346 23.24V13.7067C25.3346 9.73333 24.3213 8.73333 20.2946 8.73333H7.70801C7.33467 8.73333 6.98797 8.74667 6.66797 8.76C6.70797 4.96 7.74801 4 11.708 4H24.2946C28.3213 4 29.3346 5 29.3346 8.97333Z" stroke="#FFFEFB" stroke-width="2" stroke-linecap="round" stroke-linejoin="round"/>
<path d="M7 23.7467H9.29329" stroke="#FFFEFB" stroke-width="2" stroke-miterlimit="10" stroke-linecap="round" stroke-linejoin="round"/>
<path d="M12.1484 23.7467H16.7351" stroke="#FFFEFB" stroke-width="2" stroke-miterlimit="10" stroke-linecap="round" stroke-linejoin="round"/>
</svg>
