<svg width="150" height="48" viewBox="0 0 187 58" fill="none" xmlns="http://www.w3.org/2000/svg">
<g clip-path="url(#clip0_4404_2600)">
<path d="M47.7971 7.31592H11.4472C5.12588 7.31592 0 12.4418 0 18.7631V38.6732C12.5588 21.1992 37.0508 11.0851 47.7971 7.31592Z" fill="#E8B442"/>
<path d="M47.8573 8.24683C2.59518 31.8788 12.3331 48.0455 17.5471 54.0422C17.8868 54.4335 18.2394 54.8076 18.6007 55.1753H18.5942C19.308 55.9063 20.1616 56.7062 21.1571 57.4738C21.1571 57.4738 20.0799 56.0074 20.4992 55.1753H31.067C40.3405 55.1753 47.8573 47.6585 47.8573 38.385V12.3557C47.8573 11.2161 48.3239 10.1282 49.1495 9.34124L53.0541 5.61938C51.2459 6.50523 49.5172 7.38033 47.8573 8.24683Z" fill="#006564"/>
<path d="M52.8047 1.48488L53.912 3.31463L53.4218 5.61095L55.2171 4.92077L55.9224 5.81737L62.233 0.528076L52.8047 1.48488Z" fill="#E8B442"/>
<path d="M62.1577 38.4539L65.3399 20.5305H79.1135L78.4621 24.1836H69.3843L68.679 28.0452H76.6624L76.0367 31.6187H68.0791L66.8536 38.4539H62.1577Z" fill="#006564"/>
<path d="M78.5674 38.454L81.8807 19.5652H86.1594L82.8461 38.454H78.5674Z" fill="#006564"/>
<path d="M86.0798 38.454L88.5052 24.7061H92.7839L90.3586 38.454H86.0798ZM88.7933 22.8527L89.3674 19.5652H93.6461L93.072 22.8527H88.7933Z" fill="#006564"/>
<path d="M99.073 43.5927C97.8023 43.5927 96.738 43.4572 95.8779 43.1885C95.0179 42.9197 94.3685 42.537 93.9342 42.0403C93.4999 41.5436 93.2827 40.948 93.2827 40.2536C93.2827 40.131 93.2913 39.9568 93.3085 39.7311C93.3257 39.5053 93.3773 39.2516 93.4655 38.9742H97.613C97.5958 39.0258 97.5829 39.0796 97.5743 39.1312C97.5657 39.1828 97.5614 39.2365 97.5614 39.2882C97.5614 39.5311 97.6346 39.7354 97.7829 39.9009C97.9313 40.0665 98.1441 40.1912 98.4215 40.2794C98.6989 40.3654 99.0386 40.4105 99.4385 40.4105C100.118 40.4105 100.681 40.2923 101.135 40.0579C101.586 39.8235 101.939 39.4881 102.191 39.0538C102.442 38.6195 102.621 38.1142 102.726 37.5401C102.76 37.2971 102.799 37.0585 102.844 36.822C102.887 36.5876 102.926 36.3661 102.963 36.1576H102.78C102.414 36.5403 102.019 36.8628 101.593 37.123C101.167 37.3831 100.709 37.5745 100.223 37.6971C99.7352 37.8196 99.2235 37.8798 98.6838 37.8798C97.727 37.8798 96.8971 37.6971 96.1918 37.3315C95.4866 36.966 94.9491 36.4134 94.5749 35.676C94.2008 34.9363 94.0138 34.0096 94.0138 32.898C94.0138 32.6034 94.0267 32.2895 94.0525 31.9584C94.0783 31.6273 94.1256 31.2811 94.1965 30.9156C94.5964 28.6902 95.3791 27.0454 96.5444 25.9854C97.7098 24.9254 99.1439 24.3943 100.849 24.3943C101.789 24.3943 102.601 24.5813 103.289 24.9555C103.975 25.3296 104.493 25.8822 104.842 26.6132H105.025L105.73 24.7082H109.226L107.035 37.1789C106.757 38.7098 106.269 39.9439 105.575 40.8835C104.878 41.8231 103.992 42.509 102.913 42.9433C101.834 43.3777 100.557 43.5948 99.0773 43.5948L99.073 43.5927ZM100.561 34.5923C101.012 34.5923 101.421 34.5106 101.786 34.345C102.152 34.1795 102.474 33.9494 102.752 33.6527C103.029 33.3581 103.257 33.0141 103.431 32.6228C103.605 32.2315 103.734 31.8014 103.823 31.3306C103.857 31.0704 103.887 30.8618 103.913 30.7049C103.939 30.5479 103.956 30.4082 103.964 30.2878C103.973 30.1652 103.977 30.0534 103.977 29.948C103.977 29.4965 103.9 29.1052 103.743 28.7741C103.586 28.443 103.347 28.1871 103.025 28.0043C102.702 27.8216 102.29 27.7313 101.786 27.7313C101.178 27.7313 100.651 27.8538 100.208 28.0968C99.7653 28.3398 99.4084 28.6924 99.1396 29.1525C98.8709 29.6126 98.6838 30.1738 98.5785 30.836C98.5097 31.1672 98.4602 31.4359 98.4344 31.6445C98.4086 31.853 98.3914 32.0229 98.3828 32.1541C98.3742 32.2852 98.3699 32.4013 98.3699 32.5067C98.3699 32.941 98.4387 33.3108 98.5785 33.6161C98.7182 33.9215 98.9526 34.1601 99.2837 34.3343C99.6148 34.5084 100.041 34.5944 100.563 34.5944L100.561 34.5923Z" fill="#006564"/>
<path d="M110.107 38.454L113.395 19.5652H117.674L116.526 26.1918H116.683C117.031 25.8263 117.435 25.5103 117.895 25.2393C118.355 24.9706 118.852 24.762 119.383 24.6137C119.914 24.4653 120.439 24.3922 120.961 24.3922C121.813 24.3922 122.539 24.5277 123.139 24.7964C123.739 25.0652 124.204 25.4651 124.535 25.9962C124.866 26.5273 125.031 27.2003 125.031 28.0173C125.031 28.2775 125.014 28.5527 124.98 28.8386C124.945 29.1246 124.902 29.4256 124.849 29.7395L123.309 38.454H119.03L120.49 30.1846C120.508 30.0277 120.525 29.8793 120.542 29.7417C120.559 29.6019 120.568 29.4729 120.568 29.3504C120.568 28.9848 120.508 28.686 120.385 28.4495C120.263 28.2151 120.08 28.0409 119.837 27.927C119.594 27.8152 119.297 27.7571 118.951 27.7571C118.568 27.7571 118.194 27.8216 117.829 27.9528C117.463 28.084 117.141 28.2796 116.863 28.5398C116.586 28.7999 116.345 29.1139 116.145 29.4794C115.945 29.8449 115.801 30.2534 115.715 30.7049L114.358 38.454H110.105H110.107Z" fill="#006564"/>
<path d="M131.396 38.7655C130.596 38.7655 129.936 38.6602 129.413 38.4516C128.891 38.2431 128.5 37.9335 128.239 37.5249C127.979 37.1164 127.848 36.6068 127.848 35.9983C127.848 35.8242 127.865 35.5941 127.9 35.306C127.934 35.02 127.986 34.6416 128.057 34.1707L129.179 27.8042H127.379L127.902 24.6995H129.858L131.45 20.6809H134.683L133.978 24.6995H136.666L136.117 27.8042H133.43L132.387 33.7257C132.37 33.8826 132.348 34.0525 132.323 34.2352C132.297 34.418 132.284 34.5621 132.284 34.6653C132.284 34.9792 132.366 35.2222 132.531 35.3963C132.697 35.5705 132.978 35.6565 133.378 35.6565H134.735L134.266 38.3183C134.023 38.3871 133.727 38.4624 133.38 38.5398C133.032 38.6172 132.684 38.6731 132.338 38.7096C131.989 38.744 131.675 38.7612 131.398 38.7612L131.396 38.7655Z" fill="#006564"/>
<path d="M139.087 38.2948L139.3 37.2068C139.459 36.3403 139.786 35.5426 140.282 34.8159C140.777 34.0891 141.375 33.4183 142.076 32.7969C142.774 32.1777 143.523 31.5929 144.32 31.0446C145.118 30.4963 145.901 29.9695 146.67 29.4642C147.44 28.959 148.147 28.4515 148.795 27.9377C149.44 27.4238 149.954 26.9013 150.334 26.3702C150.715 25.8391 150.906 25.2823 150.906 24.6974C150.906 24.2717 150.743 23.8825 150.414 23.5278C150.087 23.173 149.532 22.9967 148.754 22.9967C148.152 22.9967 147.625 23.1085 147.173 23.3278C146.722 23.5493 146.359 23.8546 146.085 24.2438C145.81 24.6329 145.621 25.0931 145.514 25.6241L145.38 26.4218H141.291C141.396 25.2543 141.667 24.2438 142.101 23.3945C142.536 22.5452 143.11 21.8507 143.828 21.3089C144.544 20.7692 145.359 20.3714 146.27 20.1134C147.182 19.8575 148.152 19.7285 149.18 19.7285C150.56 19.7285 151.706 19.9414 152.62 20.365C153.531 20.7907 154.209 21.3605 154.652 22.0786C155.094 22.7967 155.316 23.588 155.316 24.4566C155.316 25.235 155.187 25.9574 154.931 26.6218C154.673 27.2862 154.325 27.8968 153.882 28.4537C153.439 29.0106 152.934 29.5287 152.368 30.0082C151.801 30.4856 151.209 30.9328 150.588 31.3499C149.969 31.767 149.347 32.1691 148.728 32.5583C148.109 32.9474 147.524 33.3366 146.976 33.7279C146.817 33.8333 146.649 33.9623 146.47 34.1128C146.294 34.2633 146.152 34.4009 146.045 34.5235H153.746L153.082 38.2948H139.085H139.087Z" fill="#E8B442"/>
<path d="M163.76 38.2948L164.476 34.416H155.976L156.561 31.0424C157.359 30.0512 158.159 28.9568 158.965 27.7635C159.771 26.568 160.545 25.2887 161.289 23.9255C162.033 22.5624 162.715 21.1626 163.334 19.7285H167.955C167.671 20.4725 167.286 21.2745 166.8 22.1323C166.312 22.9924 165.772 23.8589 165.179 24.7361C164.585 25.6134 163.975 26.4541 163.347 27.2604C162.719 28.0667 162.113 28.7999 161.528 29.4642C160.943 30.1286 160.429 30.664 159.986 31.0704H165.058L165.723 27.112C165.989 26.7766 166.275 26.3853 166.585 25.9445C166.894 25.5016 167.2 25.0415 167.501 24.5641C167.802 24.0868 168.077 23.6181 168.324 23.1558C168.572 22.6957 168.776 22.2786 168.935 21.9066H170.874L169.281 31.0704H171.698L171.113 34.416H168.696L167.98 38.2948H163.757H163.76Z" fill="#E8B442"/>
<path d="M171.874 38.4001V37.0605H172.781V38.4001H171.874Z" fill="#E8B442"/>
<path d="M179.567 36.6478C179.303 37.6992 178.518 38.4776 177.112 38.4776C175.273 38.4776 174.357 37.1015 174.357 35.3814C174.357 33.6613 175.28 32.2336 177.148 32.2336C178.617 32.2336 179.395 33.0765 179.569 34.0913H178.668C178.468 33.4657 178.051 32.9733 177.116 32.9733C175.824 32.9733 175.301 34.1451 175.301 35.3513C175.301 36.5575 175.791 37.7358 177.152 37.7358C178.075 37.7358 178.46 37.1918 178.666 36.6457H179.571L179.567 36.6478Z" fill="#E8B442"/>
<path d="M187 35.3299C187 37.0048 186.048 38.4884 184.123 38.4884C182.313 38.4884 181.313 37.1059 181.313 35.3621C181.313 33.6184 182.347 32.2358 184.196 32.2358C185.921 32.2358 187 33.513 187 35.3299ZM182.253 35.3363C182.253 36.6264 182.895 37.7294 184.16 37.7294C185.525 37.7294 186.058 36.6006 186.058 35.3449C186.058 34.0892 185.452 32.997 184.158 32.997C182.863 32.997 182.253 34.0613 182.253 35.3363Z" fill="#E8B442"/>
</g>
<defs>
<clipPath id="clip0_4404_2600">
<rect width="187" height="56.9437" fill="white" transform="translate(0 0.528076)"/>
</clipPath>
</defs>
</svg>
