<svg xmlns="http://www.w3.org/2000/svg" width="28" height="28" fill="none" viewBox="0 0 28 28">
  <path fill="#fff" d="M14 17.5a3.5 3.5 0 1 0 0-7 3.5 3.5 0 0 0 0 7Z"/>
  <path fill="#fff" d="M21.592 7.72c-2.391-1.639-4.95-2.47-7.605-2.47-2.39 0-4.719.71-6.923 2.104C4.841 8.763 2.662 11.32.875 14c1.445 2.406 3.421 4.88 5.48 6.299 2.361 1.626 4.929 2.451 7.632 2.451 2.68 0 5.242-.824 7.618-2.45 2.092-1.433 4.082-3.904 5.52-6.3-1.443-2.375-3.44-4.843-5.533-6.28ZM14 19.25a5.25 5.25 0 1 1 0-10.499 5.25 5.25 0 0 1 0 10.499Z"/>
</svg>
