<svg xmlns="http://www.w3.org/2000/svg" width="20" height="20" fill="none" viewBox="0 0 20 20">
  <g clip-path="url(#a)">
    <path fill="#006564" d="M16.996 7.825a.844.844 0 0 0 .775.587.844.844 0 0 0 .788-.55l.53-1.412a.627.627 0 1 0-1.174-.438l-.15.4a8.575 8.575 0 0 0-15.838.707.625.625 0 0 0 .865.777.625.625 0 0 0 .298-.327 7.325 7.325 0 0 1 13.906.256Zm-15.6 4.269L.86 13.619a.625.625 0 1 0 1.175.418l.168-.468a8.519 8.519 0 0 0 7.8 5 8.631 8.631 0 0 0 8.207-6.07.626.626 0 0 0-1.188-.393 7.363 7.363 0 0 1-7.019 5.219 7.275 7.275 0 0 1-7.006-5.194.838.838 0 0 0-.787-.594.825.825 0 0 0-.813.557Z"/>
    <path fill="#006564" d="M7.165 9.119v1.762a2.838 2.838 0 0 0 5.675 0V9.12a2.838 2.838 0 1 0-5.675 0Zm4.425 0v1.762a1.588 1.588 0 1 1-3.175 0V9.12a1.587 1.587 0 1 1 3.175 0Z"/>
  </g>
  <defs>
    <clipPath id="a">
      <path fill="#fff" d="M.002 0h20v20h-20z"/>
    </clipPath>
  </defs>
</svg>
