<svg width="48" height="36" viewBox="0 0 48 36" fill="none" xmlns="http://www.w3.org/2000/svg">
<g id="Group">
<path id="Vector" d="M2.99996 0.749298H45C46.6561 0.749298 48 2.09323 48 3.75074V32.2508C48 33.9068 46.6561 35.2507 45 35.2507H2.99996C1.34245 35.2509 0 33.9068 0 32.2509V3.75074C0 2.09323 1.34394 0.749298 2.99996 0.749298Z" fill="#26A6D1"/>
<path id="Vector_2" d="M7.74005 12.7493L3 23.2389H8.6745L9.37798 21.5664H10.986L11.6894 23.2389H17.9355V21.9624L18.492 23.2389H21.723L22.2795 21.9354V23.2389H35.2696L36.8491 21.6098L38.3281 23.2389L45.0001 23.2524L40.2451 18.0234L45.0001 12.7493H38.4316L36.894 14.3482L35.4616 12.7493H21.3301L20.1166 15.4567L18.8747 12.7493H13.212V13.9823L12.5821 12.7493H7.74005ZM8.83803 14.2388H11.604L14.7481 21.3519V14.2388H17.7782L20.2066 19.3388L22.4447 14.2388H25.4596V21.7658H23.6251L23.6101 15.8677L20.9356 21.7658H19.2945L16.605 15.8677V21.7658H12.831L12.1155 20.0783H8.25005L7.53605 21.7643H5.51398L8.83803 14.2388ZM27.138 14.2388H34.5975L36.879 16.7033L39.2341 14.2388H41.5156L38.0491 18.0219L41.5156 21.7613H39.1306L36.8491 19.2683L34.482 21.7613H27.138V14.2388ZM10.1836 15.5124L8.91009 18.5184H11.4557L10.1836 15.5124ZM28.9801 15.7973V17.1713H33.0496V18.7028H28.9801V20.2029H33.5446L35.6656 17.9934L33.6346 15.796H28.9801V15.7973Z" fill="white"/>
</g>
</svg>
