<svg width="80" height="36" viewBox="0 0 80 36" fill="none" xmlns="http://www.w3.org/2000/svg">
<g id="Layer_1" clip-path="url(#clip0_377_22882)">
<path id="Vector" d="M0.686944 15.5696C0.686944 15.1455 0.643526 14.748 0.555018 14.3773C0.466511 14.0082 0.287827 13.7193 0.015625 13.5139L2.18823 13.1849V19.5975C2.18823 19.666 2.2233 19.6994 2.2901 19.6994C2.33017 19.6994 2.42703 19.6142 2.57566 19.4406C2.72428 19.2702 2.91967 19.0832 3.1568 18.8828C3.39393 18.6824 3.68116 18.497 4.01515 18.325C4.34914 18.153 4.72655 18.0662 5.14905 18.0662C5.76192 18.0662 6.2796 18.2132 6.70043 18.5087C7.12293 18.8043 7.46026 19.1801 7.71242 19.641C7.96458 20.1019 8.14828 20.6095 8.2635 21.164C8.3804 21.7184 8.43718 22.2644 8.43718 22.7988C8.43718 23.4852 8.35368 24.1365 8.18334 24.7543C8.01301 25.3706 7.75584 25.9133 7.40849 26.3809C7.06281 26.8468 6.6186 27.2175 6.0742 27.4897C5.53147 27.7653 4.88687 27.9022 4.1404 27.9022C3.81309 27.9022 3.51584 27.8855 3.24364 27.8504C2.97143 27.817 2.70424 27.7786 2.43872 27.7369C2.17487 27.6951 1.89599 27.6584 1.60375 27.6233C1.31151 27.5899 0.982525 27.5715 0.615137 27.5715C0.636846 26.7082 0.655215 25.8482 0.666905 24.9915C0.678595 24.1365 0.683604 23.2764 0.683604 22.4131V15.5696H0.686944ZM6.66536 21.8303C6.57685 21.371 6.44159 20.9569 6.25789 20.5845C6.0742 20.2154 5.82872 19.9115 5.52312 19.6794C5.21751 19.4472 4.85514 19.3287 4.43264 19.3287C3.71122 19.3287 3.15847 19.6142 2.77104 20.182C2.38361 20.7515 2.1899 21.5313 2.1899 22.5183V24.1031C2.1899 24.5155 2.20994 24.9046 2.25002 25.277C2.2901 25.6461 2.38194 25.9684 2.52556 26.2439C2.66917 26.5161 2.87625 26.7366 3.14678 26.9019C3.41898 27.0672 3.79305 27.149 4.26898 27.149C4.785 27.149 5.21083 27.0238 5.54315 26.77C5.87547 26.5161 6.13599 26.1938 6.31801 25.8031C6.50171 25.4123 6.62695 24.9831 6.69542 24.5172C6.76222 24.0513 6.79729 23.6054 6.79729 23.1796C6.79729 22.7537 6.75387 22.2912 6.66536 21.8319V21.8303Z" fill="#231F20"/>
<path id="Vector_2" d="M10.9319 17.1676C10.9319 16.7033 10.9152 16.2291 10.8802 15.7431C10.8451 15.2588 10.7148 14.838 10.4844 14.4823H13.2231C12.9926 14.8363 12.8607 15.2555 12.8256 15.7414C12.7906 16.2257 12.7739 16.7 12.7739 17.1642V20.3555C13.0177 20.3154 13.2715 20.1985 13.537 20.0082C13.8009 19.8178 14.0731 19.5857 14.3503 19.3118C14.6292 19.0396 14.9031 18.7423 15.1753 18.4217C15.4458 18.1011 15.7113 17.7905 15.9685 17.4899C16.5246 16.8353 16.9654 16.2959 17.2911 15.8734C17.6167 15.4509 17.7804 15.1169 17.7804 14.8714V14.646C17.7804 14.5775 17.7737 14.524 17.7603 14.4823H20.2836C19.8094 14.9048 19.3635 15.2939 18.9493 15.6479C18.5352 16.002 18.106 16.4261 17.6585 16.9171L14.5039 20.3538L17.8822 25.2184C18.1528 25.6158 18.4517 26.015 18.7773 26.4191C19.103 26.8232 19.4219 27.204 19.7342 27.558H17.5967C17.4063 27.558 17.2577 27.5062 17.1491 27.4044C17.0406 27.3025 16.932 27.1672 16.8235 27.0036L13.1613 21.4243C13.1196 21.3558 13.0678 21.284 13.0077 21.2089C12.9475 21.1337 12.8975 21.0953 12.8557 21.0953C12.814 21.0953 12.7906 21.117 12.7839 21.1571C12.7772 21.1972 12.7739 21.2389 12.7739 21.2807V24.8711C12.7739 25.337 12.7906 25.8112 12.8256 26.2989C12.859 26.7831 12.9926 27.204 13.2231 27.5597H10.4844C10.7148 27.204 10.8468 26.7848 10.8802 26.2989C10.9136 25.8146 10.9319 25.3403 10.9319 24.8761V17.1692V17.1676Z" fill="#231F20"/>
<path id="Vector_3" d="M25.9224 27.6948C25.8289 27.3124 25.7705 27.0034 25.7504 26.7713C25.7304 26.5392 25.6803 26.424 25.6001 26.424C25.5584 26.424 25.5317 26.4306 25.5183 26.444C25.505 26.4574 25.4899 26.4707 25.4782 26.4841C25.3413 26.6761 25.2077 26.8582 25.0791 27.0285C24.9489 27.2005 24.7952 27.3491 24.6182 27.4794C24.4412 27.6096 24.2291 27.7115 23.9836 27.7866C23.7381 27.8618 23.4376 27.9002 23.0835 27.9002C22.3738 27.9002 21.7743 27.7082 21.2833 27.3257C20.7924 26.9433 20.5469 26.3755 20.5469 25.6224C20.5469 25.1698 20.6721 24.7841 20.9226 24.4618C21.1748 24.1395 21.4871 23.8556 21.8611 23.6101C22.2352 23.3629 22.636 23.1475 23.0652 22.9638C23.4943 22.7785 23.8784 22.6048 24.2191 22.4395C24.5047 22.3025 24.7435 22.1856 24.9322 22.0888C25.1225 21.9919 25.2728 21.8817 25.3814 21.7581C25.4899 21.6346 25.5651 21.4759 25.6051 21.2839C25.6452 21.0902 25.6669 20.8296 25.6669 20.499C25.6669 19.9897 25.5517 19.5605 25.3213 19.2098C25.0908 18.8574 24.6767 18.6821 24.0788 18.6821C23.5895 18.6821 23.2522 18.7856 23.0618 18.9894C22.8714 19.1948 22.7262 19.4202 22.6243 19.6674C22.5224 19.9145 22.4105 20.1399 22.2886 20.3454C22.1667 20.5508 21.943 20.6526 21.6173 20.6526C21.3852 20.6526 21.2015 20.5958 21.0662 20.4773C20.931 20.3621 20.8642 20.18 20.8642 19.9345C20.8642 19.5922 20.9794 19.3016 21.2098 19.0628C21.4403 18.824 21.7309 18.6286 22.0849 18.4784C22.4373 18.3281 22.828 18.2228 23.2555 18.1611C23.683 18.0993 24.0922 18.0692 24.4863 18.0692C24.852 18.0692 25.1977 18.0926 25.5233 18.141C25.849 18.1895 26.1329 18.2746 26.3767 18.3982C26.6205 18.5218 26.8125 18.6938 26.9545 18.9125C27.0964 19.133 27.1682 19.4068 27.1682 19.7358V24.2597C27.1682 24.8759 27.1849 25.4754 27.2183 26.0582C27.2517 26.6411 27.4254 27.1454 27.7377 27.5696L25.9191 27.6965L25.9224 27.6948ZM22.6944 26.3805C22.9867 26.6194 23.3657 26.7396 23.8283 26.7396C24.1272 26.7396 24.3944 26.6761 24.6249 26.5459C24.857 26.4173 25.0507 26.247 25.2077 26.0349C25.3647 25.8228 25.4816 25.5806 25.5551 25.3084C25.6302 25.0346 25.6686 24.7557 25.6686 24.4701V22.4044L24.5648 22.9572C24.1824 23.1475 23.8484 23.3212 23.5628 23.4782C23.2772 23.6368 23.0351 23.7988 22.838 23.9691C22.641 24.1395 22.494 24.3315 22.3988 24.5436C22.302 24.7557 22.2552 25.0028 22.2552 25.2901C22.2552 25.781 22.4005 26.1451 22.6944 26.3839V26.3805Z" fill="#231F20"/>
<path id="Vector_4" d="M31.0685 20.9666C31.2789 21.2404 31.5394 21.4843 31.8517 21.698C32.164 21.9101 32.503 22.1105 32.8687 22.2942C33.2344 22.4795 33.5734 22.6916 33.8857 22.9304C34.198 23.1709 34.4585 23.4481 34.6689 23.7654C34.8793 24.081 34.9845 24.4785 34.9845 24.9578C34.9845 25.437 34.8793 25.8812 34.6689 26.2453C34.4585 26.6077 34.1796 26.9133 33.8322 27.1604C33.4849 27.4076 33.0975 27.5913 32.67 27.7148C32.2425 27.8384 31.8099 27.9002 31.3758 27.9002C30.9666 27.9002 30.5825 27.8618 30.2235 27.7866C29.8628 27.7115 29.4921 27.5979 29.1113 27.4476C29.0028 27.4076 28.9176 27.3575 28.8575 27.304C28.7974 27.2489 28.7656 27.1454 28.7656 26.9951C28.7656 26.7479 28.779 26.5008 28.8057 26.2553C28.8324 26.0082 28.8541 25.7543 28.8675 25.4938C29.0295 25.7526 29.1848 25.9848 29.3351 26.1885C29.4837 26.3939 29.654 26.5659 29.8444 26.7095C30.0348 26.8531 30.2502 26.9617 30.4873 27.0368C30.7245 27.112 31.015 27.1504 31.354 27.1504C31.9669 27.1504 32.4395 27.0068 32.7735 26.7195C33.1075 26.4323 33.2745 25.9931 33.2745 25.4036C33.2745 24.9928 33.176 24.6471 32.9806 24.3666C32.7835 24.086 32.5364 23.8389 32.2374 23.6268C31.9385 23.413 31.6129 23.2143 31.2605 23.0306C30.9065 22.8453 30.5825 22.6332 30.2836 22.3944C29.9847 22.1556 29.7375 21.8667 29.5405 21.531C29.3434 21.1954 29.2449 20.7745 29.2449 20.2669C29.2449 19.487 29.5188 18.9242 30.0682 18.5836C30.6176 18.2412 31.3741 18.0692 32.336 18.0692C32.6483 18.0692 32.9572 18.0926 33.2628 18.141C33.5684 18.1895 33.8757 18.2479 34.1879 18.3164C34.2147 18.3297 34.2664 18.3481 34.3399 18.3681C34.4151 18.3882 34.4518 18.4333 34.4518 18.5017C34.4518 18.6938 34.4468 18.9209 34.4418 19.1814C34.4351 19.4419 34.4251 19.6807 34.4117 19.9011C34.208 19.654 34.0276 19.4503 33.8723 19.2933C33.717 19.1346 33.5567 19.0111 33.3947 18.9226C33.2311 18.8341 33.0624 18.7723 32.8854 18.7372C32.7084 18.7038 32.5046 18.6854 32.2742 18.6854C31.8801 18.6854 31.5277 18.7856 31.2154 18.9843C30.9032 19.1831 30.7479 19.5037 30.7479 19.9396C30.7479 20.352 30.8531 20.6944 31.0635 20.9682L31.0685 20.9666Z" fill="#231F20"/>
<path id="Vector_5" d="M43.8206 25.3402C43.8206 25.7243 43.8339 26.1184 43.8607 26.5225C43.889 26.925 43.9826 27.2707 44.1462 27.5596H42.3193V21.9202C42.3193 21.5912 42.3026 21.2605 42.2675 20.9315C42.2341 20.6009 42.1506 20.307 42.0204 20.0465C41.8901 19.786 41.7064 19.5722 41.4659 19.4086C41.2255 19.2449 40.9015 19.1614 40.4907 19.1614C40.0799 19.1614 39.7526 19.2449 39.5054 19.4086C39.2583 19.5722 39.0629 19.7926 38.9209 20.0665C38.7773 20.3404 38.6805 20.6493 38.632 20.9933C38.5836 21.3357 38.5602 21.678 38.5602 22.022V25.3352C38.5602 25.7193 38.5736 26.1134 38.602 26.5192C38.6304 26.925 38.7423 27.2707 38.9376 27.5579H36.6932C36.8836 27.2707 36.9905 26.925 37.0189 26.5209C37.0456 26.1167 37.059 25.7243 37.059 25.3402V15.566C37.059 15.1418 37.0389 14.7444 36.9988 14.3753C36.9588 14.0063 36.8018 13.7174 36.5312 13.512L38.5619 13.183V18.9894C38.5619 19.0712 38.5652 19.1464 38.5703 19.2148C38.5753 19.2833 38.5953 19.3167 38.6304 19.3167C38.6705 19.3167 38.7489 19.2516 38.8658 19.1213C38.9827 18.9911 39.1497 18.8475 39.3685 18.6905C39.5873 18.5335 39.8578 18.3899 40.1801 18.2596C40.5007 18.1294 40.8815 18.0642 41.319 18.0642C42.0972 18.0642 42.7101 18.2696 43.1543 18.6805C43.5985 19.0913 43.8206 19.7759 43.8206 20.7345V25.3369V25.3402Z" fill="#231F20"/>
<path id="Vector_6" d="M41.875 0.349487L59.1506 2.60225L55.0526 16.9421L41.875 0.349487Z" fill="#D83868"/>
<path id="Vector_7" d="M59.7631 2.67049L72.6 19.7407L57.7826 26.8413L55.939 19.3299C55.939 19.3299 55.4614 16.5979 56.2112 14.482L59.7615 2.66882L59.7631 2.67049Z" fill="#D83868"/>
<path id="Vector_8" d="M73.0763 19.6057L68.2969 12.9142L76.3527 11.5482L73.0763 19.6057Z" fill="#B11116"/>
<path id="Vector_9" d="M76.9737 11.5482L79.9796 14.7579H75.6094L76.9737 11.5482Z" fill="#B11116"/>
<path id="Vector_10" d="M60.375 26.3654L72.599 20.2885L72.1882 21.7213L60.375 26.3654Z" fill="#D93B2B"/>
<path id="Vector_11" d="M55.0576 18.4452L49.9375 35.6507L57.7211 29.5053L55.0576 18.4452Z" fill="#9E0B0F"/>
<path id="Vector_12" d="M48.5688 9.56749L43.584 3.21667L41.6719 3.28514L48.5688 9.56749Z" fill="#B11116"/>
<path id="Vector_13" d="M55.8281 18.3832C55.8715 18.9593 55.9367 19.3317 55.9367 19.3317L57.7803 26.8431L72.5978 19.7425L72.4625 19.5622L55.8281 18.3832Z" fill="#C4161C"/>
</g>
<defs>
<clipPath id="clip0_377_22882">
<rect width="79.9622" height="35.301" fill="white" transform="translate(0.015625 0.349487)"/>
</clipPath>
</defs>
</svg>
