<svg width="80" height="36" viewBox="0 0 80 36" fill="none" xmlns="http://www.w3.org/2000/svg">
<g id="g1438">
<g id="g1406">
<g id="g1390">
<path id="path1386" d="M51.6118 14.0926H37.6424C37.3652 14.0926 37.2266 14.3005 37.2266 14.5084V15.6146C37.2266 15.8918 37.4345 16.0304 37.6424 16.0304H48.0854V21.841C47.8082 21.4252 47.4617 21.012 47.1179 20.5962C45.8731 19.3515 44.5591 18.7278 43.1757 18.7278C42.0696 18.7278 41.1714 19.2822 40.4091 20.2497C39.7853 21.0787 39.4415 22.0489 39.4415 22.9471C39.4415 23.8454 39.5801 25.0208 40.2705 26.1296C41.0994 27.4436 42.4827 27.8595 43.7275 27.8595C45.3187 27.8595 46.6328 26.7533 46.6328 25.3007C46.6328 24.4717 46.217 23.7787 45.4573 23.2963L44.6977 22.8805V24.1252C44.6284 24.4717 44.074 24.9542 43.4529 24.9542C42.8985 24.9542 42.4161 24.7463 42.0696 24.3998C41.8617 24.1919 41.7231 23.776 41.7924 23.5015C41.7924 23.0857 41.931 22.7419 42.2082 22.3954C42.5547 21.9796 42.8985 21.7717 43.4529 21.7717C44.8363 21.7717 46.0117 22.3954 46.9793 23.776C47.7389 24.9515 48.1547 26.0576 48.1547 27.3024V30.2077L50.2284 31.4524C50.2977 31.5217 50.367 31.5217 50.4363 31.5217C50.7135 31.5217 50.8521 31.3138 50.8521 31.1059V16.097H51.6811C51.9583 16.097 52.0969 15.8891 52.0969 15.6812V14.5751C52.0969 14.2979 51.889 14.09 51.6118 14.09V14.0926Z" fill="#ED1C24"/>
<path id="path1388" d="M79.5532 14.0926H61.8496C61.5724 14.0926 61.4338 14.3005 61.4338 14.5084V16.4461C59.7039 14.647 58.182 13.7487 56.8013 13.7487C55.4206 13.7487 54.3811 14.0259 53.4136 14.7856C52.5153 15.4759 51.9609 16.3768 51.9609 17.4137C51.9609 20.5268 55.418 20.4575 56.3189 20.0417C56.4575 19.9724 56.6654 19.8338 56.8733 19.8338C57.5636 19.8338 57.8408 20.3882 57.8408 20.8707C57.8408 21.561 56.804 22.1847 55.5592 22.1847C54.8689 22.1847 54.4531 21.9768 54.1759 21.561L53.6215 20.7321L53.275 21.6996C53.2057 21.9075 53.0671 22.1847 53.0671 22.5286C53.0671 23.2189 53.4136 23.9119 54.1039 24.5329C54.7276 25.0874 55.4873 25.3619 56.3162 25.3619C57.6303 25.3619 58.7364 24.8768 59.4294 23.9092C60.0531 23.1496 60.3276 22.2487 60.3276 21.2119C60.3276 20.6574 60.1197 20.0364 59.6373 19.3434C59.0829 18.5145 58.3926 18.0987 57.6329 18.0987C57.3557 18.0987 57.0092 18.168 56.6654 18.3066C56.5268 18.3759 56.2496 18.4452 56.1803 18.4452C56.0417 18.4452 55.8338 18.3759 55.6952 18.168C55.5566 18.0294 55.418 17.8215 55.418 17.4776C55.418 16.718 56.1083 15.9557 57.3557 15.9557H57.425C58.254 15.9557 59.0856 16.3715 59.8452 17.1311C60.4689 17.7548 60.9514 18.3759 61.3672 19.0689V30.0663L63.4408 31.3111C63.5101 31.3804 63.5794 31.3804 63.6487 31.3804C63.9259 31.3804 64.0645 31.1725 64.0645 30.9646V16.0943H67.247V25.7084L69.7365 26.7452H69.8751C70.083 26.7452 70.2909 26.6066 70.2909 26.3294V26.2601C70.7067 23.4241 71.9515 21.4891 74.0252 20.3136V20.868C74.0252 21.2838 74.0252 22.3207 74.0945 22.8724C74.0945 23.2189 74.0945 23.4268 74.1638 23.632C74.1638 24.7382 74.3024 26.3987 74.6489 27.6435C75.3392 29.9944 76.5173 30.5488 77.3463 30.5488H77.4156C77.9007 30.5488 78.3138 30.4102 78.591 30.133C78.7296 29.9944 78.9375 29.7172 78.9375 29.2347C78.9375 28.8189 78.8682 28.4751 78.7296 28.1979L78.5217 27.8514L78.1059 27.9207C77.6901 28.0593 77.4822 28.0593 77.4822 27.99H77.4129C77.3205 27.99 77.2512 27.9669 77.205 27.9207C77.0664 27.8514 76.7892 27.6435 76.5813 26.8838C76.4427 26.3294 76.3734 25.5698 76.3734 25.154C76.3734 22.0408 76.9971 19.6899 78.0339 19.2075H78.1032C78.2418 19.1382 78.3804 18.9996 78.3804 18.7917C78.3804 18.7224 78.3804 18.6531 78.3111 18.5838V18.5145C77.826 17.5469 76.7892 16.8539 75.4058 16.5101H75.1286C74.0225 16.718 72.7085 17.4776 71.0479 18.861C70.6321 19.2075 70.219 19.5513 69.8725 19.8978V16.0943H79.5559C79.8331 16.0943 79.9717 15.8864 79.9717 15.6785V14.5723C80.041 14.2951 79.8331 14.0872 79.5559 14.0872L79.5532 14.0926Z" fill="#ED1C24"/>
</g>
<path id="path1392" d="M32.6588 19.2099C32.6588 19.695 32.6588 20.1082 32.5895 20.524C32.4509 22.4617 31.9658 24.2582 31.2062 25.9187C30.929 26.6091 30.5825 27.2328 30.1694 27.8565C27.2641 32.4223 22.1465 35.4636 16.3386 35.4636C13.8491 35.4636 11.4982 34.9092 9.42184 33.9416C3.88846 31.3802 0.015625 25.7108 0.015625 19.2099C0.015625 12.709 3.74986 7.24491 9.07534 4.61682C8.65953 5.17123 8.2464 5.72296 7.89989 6.34667C7.89989 6.41597 7.83059 6.41597 7.83059 6.48527C7.62269 6.69317 7.41479 6.83177 7.20689 7.03967C6.92969 7.24758 6.72178 7.52478 6.44725 7.73001L6.30865 7.86862L6.17005 8.00722C6.10075 8.07652 6.03144 8.21512 5.89284 8.28442C5.75424 8.49232 5.54634 8.70022 5.40774 8.90812C4.7174 9.80637 4.163 10.7766 3.74719 11.8134C3.67789 11.8827 3.67789 12.0213 3.60859 12.0906C3.53929 12.2292 3.53929 12.3678 3.46999 12.4371C3.46999 12.5064 3.40069 12.5757 3.40069 12.645C3.33139 12.8529 3.26209 12.9915 3.19279 13.1994C3.12349 13.338 3.12349 13.4766 3.05419 13.5459C3.05419 13.6152 2.98489 13.6845 2.98489 13.7538C2.98489 13.8924 2.91559 14.031 2.91559 14.1696C2.84629 14.5854 2.77698 14.9986 2.70768 15.4144C2.70768 15.553 2.70768 15.6223 2.63838 15.7609V16.3846V17.4214C2.63838 21.8487 4.64277 25.8601 7.89456 28.4189C10.3841 30.4233 13.4972 31.6707 16.885 31.6707C19.9982 31.6707 22.8315 30.7031 25.185 28.9733C26.9149 27.7286 28.2982 26.1373 29.3351 24.2715C29.4737 23.9943 29.6123 23.7864 29.7509 23.5119C30.5798 21.782 31.0649 19.9162 31.0649 17.9092V17.4241C31.0649 16.939 31.0649 16.5259 30.9956 16.0407L31.0649 16.11C31.2728 16.318 31.4807 16.4566 31.6886 16.6645C31.8965 16.3179 32.1044 16.0407 32.3123 15.6969C32.4509 16.3206 32.5202 16.9417 32.5895 17.6347C32.6588 18.2584 32.6588 18.7408 32.6588 19.2259V19.2099Z" fill="#ED1C24"/>
<path id="path1394" d="M18.2706 6.13894L15.2267 0.536255C10.1784 2.81784 6.71875 7.86612 6.71875 13.746C6.71875 16.7206 7.61699 19.4873 9.13894 21.7689C9.00034 21.0092 9.00034 20.2469 9.00034 19.418C9.06964 13.4022 12.8732 8.28192 18.2679 6.13894H18.2706Z" fill="#F7941D"/>
<path id="path1396" d="M20.6902 8.90557C21.935 8.55907 23.3183 8.42047 24.6324 8.42047C25.4613 8.42047 26.3622 8.48977 27.1218 8.62837L27.0525 6.13888L26.9139 1.1599C26.3595 1.0906 25.7385 1.0213 25.1148 1.0213C22.3481 1.0213 19.7893 1.91954 17.7156 3.37219L19.3762 6.41608C16.4016 7.45292 13.9814 9.52927 12.4594 12.2267C11.6998 13.5407 11.1454 15.0627 10.9375 16.6539C11.3533 15.825 11.8357 15.0627 12.3901 14.3723C14.3945 11.7442 17.2998 9.73984 20.6902 8.90823V8.90557Z" fill="#ED1C24"/>
<path id="path1398" d="M27.9581 6.0697L28.0967 9.59603C26.9212 9.24953 25.7458 9.04163 24.4317 9.04163C22.0115 9.04163 19.73 9.73197 17.7229 10.9101C15.2334 12.432 13.2957 14.8522 12.3281 17.6882C13.2957 16.3742 14.4711 15.1987 15.8545 14.3005C17.8588 12.9864 20.2817 12.2268 22.8405 12.2268C24.7782 12.2268 26.5747 12.6426 28.2353 13.4022C29.48 13.9566 30.5862 14.7163 31.5537 15.6838L33.4914 12.7785L35.9809 8.97499C33.7686 7.17585 31.002 6.0697 27.9581 6.0697Z" fill="#F7941D"/>
<path id="path1400" d="M31.0672 17.5494V18.0346C31.0672 20.9398 29.8917 23.36 29.7531 23.6372C29.6145 23.9144 29.4759 24.1223 29.3373 24.3969C28.3005 26.2653 26.9171 27.8539 25.1873 29.0987C22.8364 30.7592 20.0004 31.796 16.8872 31.796C13.4995 31.796 10.317 30.6206 7.8968 28.5442C4.71431 25.9162 2.64062 21.974 2.64062 17.5468V16.5099V15.8862C2.64062 15.7476 2.64062 15.6783 2.70993 15.5397C2.77923 15.1239 2.84853 14.7108 2.91783 14.295C2.91783 14.1564 2.98713 14.0178 2.98713 13.8792C2.98713 13.8099 3.05643 13.7406 3.05643 13.6713C3.12573 13.5327 3.12573 13.3941 3.19503 13.3248C3.26433 13.1169 3.33363 12.909 3.40293 12.7704C3.40293 12.7011 3.47223 12.6318 3.47223 12.5625C3.54153 12.4239 3.54153 12.2853 3.61083 12.216C3.68013 12.1467 3.68013 12.0081 3.74943 11.9388C4.16524 10.9019 4.78628 9.93439 5.40998 9.03348C5.54858 8.82558 5.75648 8.61768 5.89508 8.40977C5.96439 8.34047 6.03369 8.20187 6.17229 8.13257C6.24159 8.06327 6.24159 7.99397 6.31089 7.99397C6.38019 7.92467 6.38019 7.85537 6.44949 7.85537C6.65739 7.57817 6.93459 7.37027 7.20913 7.16503C7.41703 6.95713 7.62493 6.81853 7.83283 6.61063C7.83283 6.67993 7.76353 6.67993 7.76353 6.74923C7.76353 6.81853 7.69423 6.88783 7.69423 6.88783C6.86529 8.54838 6.31089 10.5528 6.10299 12.6291C6.03369 13.1835 6.03369 13.7353 6.03369 14.359C6.03369 21.8274 10.3916 27.8459 15.7864 27.8459H16.3408C17.1004 27.8459 17.8628 27.7073 18.6224 27.5687C22.2873 26.6012 24.9847 23.2108 24.9847 19.2686V19.0607C24.9154 16.7098 23.9479 14.5642 22.3566 13.1142C23.4628 13.1142 24.5689 13.3221 25.6084 13.5993C27.6128 14.0844 29.412 15.052 31.0032 16.2967L31.0725 16.366C31.0032 16.6432 31.0725 17.1256 31.0725 17.5415L31.0672 17.5494Z" fill="#F7941D"/>
<g id="g1404">
<path id="path1402" d="M31.0631 17.5495V18.0346C31.0631 21.0785 29.6798 23.7065 29.6798 23.7065C29.5412 23.9837 29.4026 24.1916 29.264 24.4662C28.2271 26.3346 26.7745 27.9232 25.0446 29.168C22.6245 30.9671 19.7192 31.8653 16.6753 31.8653C13.3568 31.8653 10.1743 30.6899 7.61555 28.6136C4.29712 25.9162 2.35938 21.8354 2.35938 17.5468C2.35938 13.2582 4.29712 9.17742 7.61555 6.48003L7.75415 6.34143C7.75415 6.41073 7.68485 6.41073 7.68485 6.48003C7.68485 6.54933 7.61555 6.54933 7.61555 6.61863C4.36376 9.31602 2.49798 13.2582 2.49798 17.5468C2.49798 21.8354 4.36643 25.7776 7.68485 28.5443C10.1743 30.6179 13.4261 31.7267 16.6753 31.7267C19.6499 31.7267 22.5552 30.8285 24.9753 29.0294C26.7052 27.7846 28.0885 26.1934 29.1254 24.3276C29.264 24.0504 29.4026 23.8425 29.4719 23.5679C29.4719 23.5679 30.8552 21.0092 30.8552 17.9653V17.4802C30.8552 16.9951 30.8552 16.5819 30.7859 16.0968V16.0275L30.8552 16.0968L30.9245 16.1661C31.0631 16.7205 31.0631 17.1337 31.0631 17.5495Z" fill="#F7941D"/>
</g>
</g>
</g>
</svg>
