<svg width="54" height="18" viewBox="0 0 54 18" fill="none" xmlns="http://www.w3.org/2000/svg">
<g id="visa">
<path id="Shape" d="M19.2578 16.8983L21.9266 1.23721H26.1953L23.5245 16.8983H19.2578Z" fill="#0E4595"/>
<path id="path13" d="M38.9494 1.57497C38.1038 1.25769 36.7786 0.917206 35.1237 0.917206C30.9057 0.917206 27.9346 3.04129 27.9093 6.08553C27.8855 8.33585 30.0304 9.59121 31.6496 10.3403C33.3112 11.1081 33.8697 11.5976 33.8617 12.283C33.8511 13.3328 32.5349 13.8122 31.3078 13.8122C29.5994 13.8122 28.6917 13.5749 27.2898 12.9903L26.7397 12.7414L26.1406 16.2472C27.1377 16.6845 28.9813 17.0631 30.8957 17.0828C35.3829 17.0828 38.2958 14.983 38.3289 11.7321C38.3449 9.95049 37.2077 8.59481 34.7449 7.47705C33.2529 6.75257 32.3391 6.26913 32.3488 5.53553C32.3488 4.88457 33.1222 4.18849 34.7935 4.18849C36.1893 4.16681 37.2005 4.47121 37.9884 4.78849L38.3709 4.96921L38.9494 1.57497Z" fill="#0E4595"/>
<path id="Path" d="M49.9279 1.23712H46.6295C45.6076 1.23712 44.8429 1.516 44.3942 2.53584L38.0547 16.888H42.5372C42.5372 16.888 43.27 14.9583 43.4357 14.5346C43.9256 14.5346 48.2801 14.5413 48.9026 14.5413C49.0303 15.0896 49.422 16.888 49.422 16.888H53.3829L49.9279 1.23712ZM44.6945 11.3498C45.0476 10.4474 46.3953 6.97184 46.3953 6.97184C46.3702 7.01352 46.7458 6.06512 46.9612 5.47712L47.2498 6.82736C47.2498 6.82736 48.0672 10.5657 48.238 11.3495H44.6945V11.3498Z" fill="#0E4595"/>
<path id="path16" d="M0.671719 1.23718L0.617188 1.56296C2.30462 1.97144 3.81175 2.56266 5.13125 3.29812L8.91891 16.8731L13.4353 16.8681L20.1556 1.23718H15.6336L11.4545 11.9169L11.0094 9.7464C10.9885 9.67934 10.9658 9.61217 10.9427 9.54484L9.48984 2.55937C9.23152 1.56769 8.48212 1.27174 7.555 1.23718H0.671719Z" fill="#0E4595"/>
</g>
</svg>
