<svg width="22" height="22" viewBox="0 0 22 22" fill="none" xmlns="http://www.w3.org/2000/svg">
<g id="Frame 3677">
<path id="Vector" d="M4.91329 12.5297C5.38868 12.5297 5.77313 12.9141 5.77313 13.3895C5.77313 13.712 6.03356 13.9724 6.356 13.9724C6.67844 13.9724 6.93888 13.712 6.93888 13.3895C6.93888 12.4759 6.3312 11.7029 5.49616 11.4507V11.0704C5.49616 10.748 5.23573 10.4875 4.91329 10.4875C4.59084 10.4875 4.33041 10.748 4.33041 11.0704V11.4507C3.49537 11.7029 2.8877 12.4759 2.8877 13.3895C2.8877 14.5057 3.79714 15.4151 4.91329 15.4151C4.89675 15.4192 4.91329 15.4151 4.91742 15.4151C5.35561 15.4564 5.77313 15.8202 5.77313 16.2667C5.77313 16.7421 5.38868 17.1265 4.91329 17.1265C4.43789 17.1265 4.05344 16.7421 4.05344 16.2667C4.05344 15.9442 3.79301 15.6838 3.47057 15.6838C3.14813 15.6838 2.8877 15.9442 2.8877 16.2667C2.8877 17.1803 3.49537 17.9533 4.33041 18.2055V18.5816C4.33041 18.9041 4.59084 19.1645 4.91329 19.1645C5.23573 19.1645 5.49616 18.9041 5.49616 18.5816V18.2055C6.3312 17.9533 6.93888 17.1803 6.93888 16.2667C6.93888 15.1505 5.95502 14.2452 4.83474 14.2452C4.85128 14.2411 4.83474 14.2452 4.83061 14.2452C4.39242 14.2039 4.05344 13.836 4.05344 13.3895C4.05344 12.9141 4.43789 12.5297 4.91329 12.5297Z" fill="#006564"/>
<path id="Vector_2" d="M11.8995 2.8313H4.63632C3.67313 2.8313 2.8877 3.61673 2.8877 4.57992V7.54803C2.8877 8.51122 3.67313 9.29665 4.63632 9.29665H11.8995C12.8627 9.29665 13.6481 8.51122 13.6481 7.54803V4.57992C13.6481 3.61673 12.8627 2.8313 11.8995 2.8313ZM12.4824 7.54803C12.4824 7.87047 12.2219 8.13091 11.8995 8.13091H4.63632C4.31388 8.13091 4.05344 7.87047 4.05344 7.54803V4.57992C4.05344 4.25748 4.31388 3.99705 4.63632 3.99705H11.8995C12.2219 3.99705 12.4824 4.25748 12.4824 4.57992V7.54803ZM13.0653 12.7195H8.77844C8.456 12.7195 8.19557 12.9799 8.19557 13.3024C8.19557 13.6248 8.456 13.8852 8.77844 13.8852H13.0653C13.3877 13.8852 13.6481 13.6248 13.6481 13.3024C13.6481 12.9799 13.3877 12.7195 13.0653 12.7195ZM13.0653 15.2205H8.77844C8.456 15.2205 8.19557 15.4809 8.19557 15.8033C8.19557 16.1258 8.456 16.3862 8.77844 16.3862H13.0653C13.3877 16.3862 13.6481 16.1258 13.6481 15.8033C13.6481 15.4809 13.3877 15.2205 13.0653 15.2205Z" fill="#006564"/>
<path id="Vector_3" d="M19.8036 8.1311H15.9839V2.24862C15.9839 1.28543 15.1985 0.5 14.2353 0.5H2.30087C1.33768 0.5 0.552246 1.28543 0.552246 2.24862V18.1309C0.552246 19.9911 2.0611 21.5 3.92134 21.5H18.3196C18.3402 21.5 18.3609 21.4917 18.3816 21.4917C20.1467 21.3884 21.5522 19.925 21.5522 18.135V9.88386C21.5522 8.91654 20.7668 8.1311 19.8036 8.1311ZM3.92134 20.3343C2.70599 20.3343 1.71799 19.3463 1.71799 18.1309V2.24862C1.71799 1.92618 1.97843 1.66575 2.30087 1.66575H14.2312C14.5536 1.66575 14.8141 1.92618 14.8141 2.24862V18.1309C14.8141 18.9742 15.1282 19.7431 15.6408 20.3343H3.92134ZM20.3865 18.1309C20.3865 19.3091 19.4564 20.2722 18.2906 20.326H18.2824L18.1832 20.3301C16.9678 20.3301 15.9798 19.3421 15.9798 18.1268V9.30098H17.5961V17.1884C17.5961 17.5108 17.8566 17.7713 18.179 17.7713C18.5015 17.7713 18.7619 17.5108 18.7619 17.1884V9.30098H19.7954C20.1178 9.30098 20.3782 9.56142 20.3782 9.88386V18.1309H20.3865Z" fill="#006564"/>
</g>
</svg>
