<svg width="32" height="33" viewBox="0 0 32 33" fill="none" xmlns="http://www.w3.org/2000/svg">
<g id="bell-bing_svgrepo.com">
<path id="Vector" d="M17 8.5C17 7.94772 16.5523 7.5 16 7.5C15.4477 7.5 15 7.94772 15 8.5V13.8333C15 14.3856 15.4477 14.8333 16 14.8333C16.5523 14.8333 17 14.3856 17 13.8333V8.5Z" fill="#004343"/>
<path id="Vector_2" fill-rule="evenodd" clip-rule="evenodd" d="M5.66705 12.5001C5.66705 6.79313 10.2934 2.16675 16.0003 2.16675C21.7073 2.16675 26.3337 6.79313 26.3337 12.5001V13.4389C26.3337 14.3681 26.6087 15.2766 27.1242 16.0497L28.6557 18.3469C30.4331 21.0131 29.0762 24.6371 25.9847 25.4802C24.9773 25.755 23.9611 25.9874 22.9393 26.1775L22.9367 26.1843C21.9114 28.9202 19.171 30.8334 16.0003 30.8334C12.8296 30.8334 10.0892 28.9202 9.0639 26.1843L9.06137 26.1775C8.03949 25.9874 7.0235 25.755 6.01602 25.4802C2.92456 24.6371 1.56762 21.0131 3.34507 18.3469L4.87655 16.0497C5.39199 15.2766 5.66705 14.3681 5.66705 13.4389V12.5001ZM11.4983 26.5493C14.4889 26.9066 17.5117 26.9067 20.5022 26.5494C19.5543 27.9114 17.9055 28.8334 16.0003 28.8334C14.095 28.8334 12.4462 27.9114 11.4983 26.5493ZM16.0003 4.16675C11.398 4.16675 7.66705 7.89771 7.66705 12.5001V13.4389C7.66705 14.763 7.27511 16.0574 6.54065 17.1591L5.00918 19.4563C3.98895 20.9866 4.7678 23.0667 6.54224 23.5507C12.7346 25.2395 19.2662 25.2395 25.4585 23.5507C27.233 23.0667 28.0118 20.9866 26.9915 19.4563L25.4601 17.1591C24.7257 16.0574 24.3337 14.763 24.3337 13.4389V12.5001C24.3337 7.89771 20.6027 4.16675 16.0003 4.16675Z" fill="#004343"/>
</g>
</svg>
