<svg width="25" height="25" viewBox="0 0 25 25" fill="none" xmlns="http://www.w3.org/2000/svg">
<path fill-rule="evenodd" clip-rule="evenodd" d="M8.80225 2C9.21647 2 9.55225 2.33579 9.55225 2.75V3.5H13.3022C13.7165 3.5 14.0522 3.83579 14.0522 4.25C14.0522 4.66421 13.7165 5 13.3022 5H9.55225V5.75C9.55225 6.16421 9.21647 6.5 8.80225 6.5C8.38802 6.5 8.05225 6.16421 8.05225 5.75V5H6.55225C4.89539 5 3.55225 6.34314 3.55225 8V18.5C3.55225 20.1568 4.89539 21.5 6.55225 21.5H11.0522C11.4665 21.5 11.8022 21.8358 11.8022 22.25C11.8022 22.6642 11.4665 23 11.0522 23H6.55225C4.06696 23 2.05225 20.9853 2.05225 18.5V8C2.05225 5.51472 4.06696 3.5 6.55225 3.5H8.05225V2.75C8.05225 2.33579 8.38802 2 8.80225 2ZM16.3022 2C16.7165 2 17.0522 2.33579 17.0522 2.75V3.5H18.5522C21.0375 3.5 23.0522 5.51472 23.0522 8V11C23.0522 11.4142 22.7165 11.75 22.3022 11.75C21.888 11.75 21.5522 11.4142 21.5522 11V8C21.5522 6.34314 20.2091 5 18.5522 5H17.0522V5.75C17.0522 6.16421 16.7165 6.5 16.3022 6.5C15.888 6.5 15.5522 6.16421 15.5522 5.75V2.75C15.5522 2.33579 15.888 2 16.3022 2ZM6.55225 8.75C6.13804 8.75 5.80225 9.08577 5.80225 9.5C5.80225 9.91423 6.13804 10.25 6.55225 10.25H18.5522C18.9665 10.25 19.3022 9.91423 19.3022 9.5C19.3022 9.08577 18.9665 8.75 18.5522 8.75H6.55225ZM19.8326 17.5303L17.9576 19.4053C17.6647 19.6982 17.1898 19.6982 16.8969 19.4053L15.7719 18.2803C15.479 17.9874 15.479 17.5126 15.7719 17.2197C16.0648 16.9268 16.5397 16.9268 16.8326 17.2197L17.4272 17.8144L18.7719 16.4697C19.0648 16.1768 19.5397 16.1768 19.8326 16.4697C20.1254 16.7626 20.1254 17.2374 19.8326 17.5303ZM8.05225 13.625C8.05225 14.2463 7.54857 14.75 6.92725 14.75C6.30592 14.75 5.80225 14.2463 5.80225 13.625C5.80225 13.0037 6.30592 12.5 6.92725 12.5C7.54857 12.5 8.05225 13.0037 8.05225 13.625ZM6.92725 19.25C7.54857 19.25 8.05225 18.7463 8.05225 18.125C8.05225 17.5037 7.54857 17 6.92725 17C6.30592 17 5.80225 17.5037 5.80225 18.125C5.80225 18.7463 6.30592 19.25 6.92725 19.25ZM14.0522 17.75C14.0522 15.679 15.7312 14 17.8022 14C19.8733 14 21.5522 15.679 21.5522 17.75C21.5522 19.8211 19.8733 21.5 17.8022 21.5C15.7312 21.5 14.0522 19.8211 14.0522 17.75ZM17.8022 12.5C14.9027 12.5 12.5522 14.8505 12.5522 17.75C12.5522 20.6495 14.9027 23 17.8022 23C20.7017 23 23.0522 20.6495 23.0522 17.75C23.0522 14.8505 20.7017 12.5 17.8022 12.5Z" fill="#006564"/>
</svg>
