<svg width="40" height="41" viewBox="0 0 40 41" fill="none" xmlns="http://www.w3.org/2000/svg">
<g id="account">
<g id="Layer 2">
<path id="Vector" d="M19.9997 38.4166C16.4561 38.4166 12.9921 37.3658 10.0457 35.3971C7.09933 33.4284 4.80291 30.6302 3.44684 27.3563C2.09077 24.0825 1.73596 20.4801 2.42728 17.0046C3.1186 13.5291 4.82499 10.3366 7.33069 7.83093C9.83638 5.32524 13.0288 3.61884 16.5043 2.92752C19.9798 2.23621 23.5823 2.59101 26.8561 3.94709C30.1299 5.30316 32.9281 7.59958 34.8969 10.546C36.8656 13.4923 37.9164 16.9563 37.9164 20.4999C37.9111 25.2501 36.0217 29.8042 32.6628 33.1631C29.304 36.522 24.7499 38.4113 19.9997 38.4166ZM19.9997 5.08326C16.9506 5.08326 13.9699 5.98743 11.4346 7.68144C8.89938 9.37544 6.92339 11.7832 5.75654 14.6002C4.58969 17.4173 4.28439 20.517 4.87924 23.5076C5.4741 26.4981 6.94239 29.2451 9.09845 31.4012C11.2545 33.5572 14.0015 35.0255 16.992 35.6204C19.9826 36.2152 23.0824 35.9099 25.8994 34.7431C28.7164 33.5762 31.1242 31.6002 32.8182 29.065C34.5122 26.5297 35.4164 23.5491 35.4164 20.4999C35.4119 16.4125 33.7863 12.4938 30.896 9.60357C28.0058 6.71334 24.0871 5.08767 19.9997 5.08326Z" fill="#006564"/>
<path id="Vector_2" d="M20 21.75C18.7639 21.75 17.5555 21.3834 16.5277 20.6967C15.4999 20.0099 14.6988 19.0338 14.2258 17.8918C13.7527 16.7497 13.629 15.4931 13.8701 14.2807C14.1113 13.0683 14.7065 11.9547 15.5806 11.0806C16.4547 10.2065 17.5683 9.61125 18.7807 9.37009C19.9931 9.12894 21.2498 9.25271 22.3918 9.72576C23.5338 10.1988 24.51 10.9999 25.1967 12.0277C25.8835 13.0555 26.25 14.2639 26.25 15.5C26.2478 17.1569 25.5886 18.7454 24.417 19.917C23.2454 21.0886 21.657 21.7478 20 21.75ZM20 11.75C19.2584 11.75 18.5333 11.9699 17.9166 12.382C17.3 12.794 16.8193 13.3797 16.5355 14.0649C16.2517 14.7502 16.1774 15.5042 16.3221 16.2316C16.4668 16.959 16.8239 17.6272 17.3484 18.1517C17.8728 18.6761 18.541 19.0333 19.2684 19.1779C19.9959 19.3226 20.7499 19.2484 21.4351 18.9645C22.1203 18.6807 22.706 18.2001 23.118 17.5834C23.5301 16.9667 23.75 16.2417 23.75 15.5C23.7487 14.5058 23.3532 13.5528 22.6502 12.8498C21.9472 12.1468 20.9942 11.7513 20 11.75ZM28.3334 30.0833C28.071 30.0827 27.8155 29.9999 27.6026 29.8466C27.3898 29.6932 27.2303 29.477 27.1467 29.2283L26.24 26.5083C26.1026 26.0932 25.8377 25.7321 25.4831 25.4762C25.1285 25.2204 24.7023 25.0829 24.265 25.0833H15.735C15.2978 25.0829 14.8715 25.2204 14.5169 25.4762C14.1623 25.7321 13.8975 26.0932 13.76 26.5083L12.8534 29.2283C12.7486 29.5431 12.5231 29.8033 12.2265 29.9517C11.9299 30.1002 11.5864 30.1248 11.2717 30.02C10.957 29.9152 10.6968 29.6897 10.5483 29.3931C10.3998 29.0965 10.3753 28.7531 10.48 28.4383L11.3867 25.7167C11.6908 24.804 12.2744 24.0102 13.0549 23.4478C13.8354 22.8855 14.7731 22.583 15.735 22.5833H24.265C25.227 22.583 26.1647 22.8855 26.9452 23.4478C27.7256 24.0102 28.3093 24.804 28.6134 25.7167L29.52 28.4383C29.572 28.5941 29.5927 28.7585 29.581 28.9222C29.5693 29.086 29.5254 29.2458 29.4519 29.3925C29.3784 29.5393 29.2766 29.6701 29.1525 29.7775C29.0283 29.8849 28.8842 29.9667 28.7284 30.0183C28.6012 30.0616 28.4677 30.0836 28.3334 30.0833Z" fill="#006564"/>
</g>
</g>
</svg>
