<svg width="80" height="80" viewBox="0 0 80 80" fill="none" xmlns="http://www.w3.org/2000/svg">
<path d="M15.6573 22.9115C14.8112 23.3122 14.2592 24.1534 14.2292 25.0888C14.1982 26.0244 14.6926 26.8992 15.5106 27.354L30.0551 35.456L19.8375 40.2952L13.2565 36.3452C12.7796 36.0596 12.2208 35.9402 11.6693 36.0078L3.82099 36.9587C2.93642 37.0651 2.17564 37.6352 1.82378 38.4546C1.47253 39.2724 1.58432 40.2173 2.11648 40.932L9.21336 50.4704L9.11329 55.2031C9.09046 56.2789 9.75797 57.2475 10.7717 57.6096L17.4307 59.9882C18.055 60.2112 18.743 60.1771 19.3417 59.8936L30.6387 54.5431C31.8858 53.9524 32.4187 52.4607 31.828 51.2136C31.2373 49.9664 29.7457 49.4337 28.4985 50.0243L18.137 54.9317L14.1503 53.5069L14.2311 49.7191C14.2434 49.1642 14.0687 48.6203 13.7372 48.1744L8.69865 41.4031L11.4197 41.0728L18.4126 45.2696C19.1297 45.7003 20.0136 45.7442 20.7694 45.3863L61.4386 26.1245C61.7662 25.9694 62.2044 26.0029 62.6764 26.0504C63.4513 26.1274 64.2905 26.3523 65.0901 26.6567C65.9015 26.9653 66.674 27.3574 67.2955 27.7906C67.6491 28.0379 67.9756 28.2456 68.0976 28.5031C68.3571 29.051 68.1329 29.7519 67.8825 30.3739C67.6275 31.0063 67.3229 31.6362 66.9083 31.8326L55.6113 37.1831C55.0645 37.4421 54.6299 37.8918 54.3883 38.4474L44.1786 61.9614L40.3791 63.7609L43.3247 47.3753C43.4914 46.4541 43.1285 45.5172 42.3849 44.9483C41.6422 44.3789 40.6416 44.2731 39.7955 44.6738L37.5361 45.7439C36.2889 46.3346 35.7561 47.8262 36.3468 49.0734C36.6336 49.6788 37.1322 50.1164 37.7129 50.3379L34.5993 67.6578C34.4328 68.5789 34.7964 69.5156 35.54 70.0844C36.2827 70.6538 37.2832 70.7596 38.1294 70.3589L47.167 66.0785C47.7137 65.8195 48.1483 65.3698 48.39 64.8142L58.5997 41.3002L69.0485 36.3514C70.3194 35.7495 71.7366 34.1834 72.5193 32.2472C73.3033 30.3019 73.4275 28.0756 72.6164 26.3629C71.8968 24.8435 69.5914 23.0196 66.8681 21.983C64.1432 20.9459 61.1262 20.7401 59.2984 21.6057L51.109 25.4844L26.448 18.4859C25.8649 18.3208 25.2417 18.3721 24.6949 18.6311L15.6573 22.9115ZM44.2478 28.734L35.6074 32.8263L22.1875 25.3511L25.987 23.5516L44.2478 28.734Z" fill="url(#paint0_linear_4361_2713)"/>
<defs>
<linearGradient id="paint0_linear_4361_2713" x1="39.1559" y1="69.8727" x2="54.3548" y2="13.9864" gradientUnits="userSpaceOnUse">
<stop stop-color="#209D9C"/>
<stop offset="1" stop-color="#14F0EE"/>
</linearGradient>
</defs>
</svg>
