<svg width="80" height="80" viewBox="0 0 80 80" fill="none" xmlns="http://www.w3.org/2000/svg">
<g id="Dashboard">
<path id="Vector" d="M66.1717 31.6773C57.7645 17.1297 39.4487 12.2806 25.0363 20.4635C10.6239 28.9496 5.81975 47.4371 13.9267 61.9846C14.8275 63.5 16.6291 63.8031 18.1304 63.1969C19.6316 62.5908 19.9319 60.4693 19.3314 58.9539C15.1278 51.3771 15.1278 42.2848 19.3314 34.708C25.9371 23.1912 40.6497 19.2513 52.0596 25.9189C63.4694 32.5865 67.3727 47.4371 60.7671 58.9539C60.4668 59.56 60.4668 59.8631 60.4668 60.4693C60.4668 62.2877 61.6678 63.5 63.4694 63.5C64.6704 63.5 65.5712 62.8939 66.1717 61.9846C71.2761 52.5893 71.2761 41.0726 66.1717 31.6773ZM48.4565 34.1019L43.9526 38.648C42.7515 38.0418 41.5505 37.7387 40.0492 37.7387C34.9448 37.7387 31.0415 41.6787 31.0415 46.8309C31.0415 51.9832 34.9448 55.9232 40.0492 55.9232C45.1536 55.9232 49.057 51.9832 49.057 46.8309C49.057 45.3156 48.7567 44.1033 48.1562 42.891L52.6601 38.3449C53.8611 37.1326 53.8611 35.3142 52.6601 34.1019C51.7593 32.8896 49.6575 32.8896 48.4565 34.1019Z" fill="url(#paint0_linear_4361_2756)"/>
</g>
<defs>
<linearGradient id="paint0_linear_4361_2756" x1="40" y1="16.5" x2="40" y2="63.5" gradientUnits="userSpaceOnUse">
<stop stop-color="#14F0EE"/>
<stop offset="1" stop-color="#209D9C"/>
</linearGradient>
</defs>
</svg>
