<svg width="80" height="80" viewBox="0 0 80 80" fill="none" xmlns="http://www.w3.org/2000/svg">
<g id="Notification">
<path id="Vector" d="M17.394 35.433C17.2886 36.0388 16.9709 36.6077 16.4922 37.0237L10.9169 41.7648C9.37401 43.088 8.41946 44.9816 8.28921 46.9875C8.16949 48.9328 8.8147 50.7927 10.1259 52.238C11.437 53.6833 13.2321 54.6822 15.1735 55.02L24.2738 56.6035C24.3486 62.6397 28.67 67.9792 34.8278 69.0507C40.9857 70.1222 46.887 66.5613 48.9659 60.8998L58.0662 62.4833C60.402 62.8897 62.7442 62.361 64.6972 61.0155C67.6524 58.9395 68.4707 54.7751 66.575 51.4804L62.9037 45.0993C62.5937 44.546 62.4815 43.9335 62.5921 43.2974L63.7095 36.8756C65.8547 24.5471 57.8184 12.5379 45.8086 10.0737C39.5966 8.77437 33.2809 10.0473 28.0983 13.6083C23.0635 17.039 19.692 22.226 18.6537 28.1934L17.394 35.433ZM35.6237 64.4767C31.9836 63.8433 29.3771 60.8619 28.9506 57.386L44.2997 60.0567C42.7493 63.2199 39.2638 65.1101 35.6237 64.4767ZM21.9442 36.2247L23.2039 28.9851C24.0261 24.2596 26.6763 20.1643 30.7142 17.434C34.7165 14.7287 39.5222 13.6924 44.315 14.5263C44.497 14.558 44.679 14.5896 44.8914 14.6266C54.4903 16.5776 60.9079 26.2142 59.1844 36.1195L58.0671 42.5412C58.0144 42.8442 57.9973 43.1221 58.0052 43.4355L39.5316 40.2211C38.2879 40.0047 37.0774 40.8552 36.8613 42.0971C36.6452 43.3391 37.4973 44.5484 38.741 44.7649L59.4594 48.3698L62.6057 53.817C63.231 54.8933 63.2048 56.4803 62.0655 57.2808C61.1397 57.9311 60.0043 58.1704 58.8819 57.9752L15.9588 50.5066C15.0185 50.343 14.1612 49.8817 13.5333 49.1795C13.0663 48.6301 12.8381 47.9662 12.8986 47.259C12.9394 46.4859 13.3138 45.7708 13.9046 45.2494L19.4799 40.5084C20.7933 39.4262 21.6543 37.8907 21.9442 36.2247Z" fill="url(#paint0_linear_4361_2763)"/>
</g>
<defs>
<linearGradient id="paint0_linear_4361_2763" x1="45.1426" y1="9.94396" x2="34.8572" y2="69.0558" gradientUnits="userSpaceOnUse">
<stop stop-color="#14F0EE"/>
<stop offset="1" stop-color="#209D9C"/>
</linearGradient>
</defs>
</svg>
