<svg width="80" height="80" viewBox="0 0 80 80" fill="none" xmlns="http://www.w3.org/2000/svg">
<path d="M67.8571 65.0824H40.4586L67.2293 38.3116C67.7662 37.7751 68.192 37.1381 68.4826 36.4369C68.7732 35.7358 68.9227 34.9842 68.9227 34.2252C68.9227 33.4662 68.7732 32.7147 68.4826 32.0135C68.192 31.3123 67.7662 30.6753 67.2293 30.1388L49.2293 12.1388C48.1288 11.087 46.6651 10.5 45.1429 10.5C43.6206 10.5 42.1569 11.087 41.0564 12.1388L12.7707 40.4245C12.2338 40.961 11.808 41.598 11.5174 42.2992C11.2268 43.0004 11.0773 43.7519 11.0773 44.5109C11.0773 45.2699 11.2268 46.0215 11.5174 46.7226C11.808 47.4238 12.2338 48.0609 12.7707 48.5974L16.6236 52.4502L16.6279 52.4566L16.6321 52.4588L29.2536 65.0824H12.1429C11.5745 65.0824 11.0295 65.3081 10.6276 65.71C10.2258 66.1119 10 66.6569 10 67.2252C10 67.7935 10.2258 68.3386 10.6276 68.7405C11.0295 69.1423 11.5745 69.3681 12.1429 69.3681H67.8571C68.4255 69.3681 68.9705 69.1423 69.3724 68.7405C69.7742 68.3386 70 67.7935 70 67.2252C70 66.6569 69.7742 66.1119 69.3724 65.71C68.9705 65.3081 68.4255 65.0824 67.8571 65.0824ZM64.6364 34.2252C64.6371 34.4215 64.5988 34.6159 64.5238 34.7973C64.4487 34.9786 64.3384 35.1432 64.1993 35.2816L35.9136 63.5674C35.6292 63.8395 35.2508 63.9915 34.8571 63.9915C34.4635 63.9915 34.0851 63.8395 33.8007 63.5674L21.1729 50.9395L51.5714 20.5409L64.1993 33.1688C64.3387 33.3074 64.4491 33.4724 64.5242 33.6542C64.5992 33.8359 64.6374 34.0286 64.6364 34.2252ZM15.3636 44.5109C15.3629 44.3147 15.4012 44.1202 15.4762 43.9389C15.5513 43.7575 15.6616 43.5929 15.8007 43.4545L44.0864 15.1688C44.2251 15.03 44.3898 14.9199 44.5711 14.8448C44.7523 14.7697 44.9466 14.731 45.1429 14.731C45.3391 14.731 45.5334 14.7697 45.7146 14.8448C45.8959 14.9199 46.0606 15.03 46.1993 15.1688L48.5414 17.5109L18.1429 47.9095L15.8007 45.5674C15.6613 45.4287 15.5509 45.2637 15.4758 45.082C15.4008 44.9002 15.3626 44.7076 15.3636 44.5109Z" fill="url(#paint0_linear_4361_2723)"/>
<path d="M41.6992 45.3532L34.1992 52.8532C33.9946 53.0509 33.8313 53.2874 33.719 53.5488C33.6067 53.8102 33.5476 54.0914 33.5451 54.3759C33.5427 54.6605 33.5969 54.9426 33.7046 55.206C33.8124 55.4693 33.9715 55.7086 34.1727 55.9098C34.3739 56.111 34.6131 56.2701 34.8765 56.3779C35.1398 56.4856 35.422 56.5398 35.7065 56.5373C35.991 56.5349 36.2722 56.4758 36.5337 56.3635C36.7951 56.2511 37.0316 56.0879 37.2292 55.8832L44.7292 48.3832C45.1196 47.9791 45.3356 47.4378 45.3307 46.8759C45.3258 46.3141 45.1004 45.7766 44.7031 45.3793C44.3058 44.982 43.7684 44.7567 43.2065 44.7518C42.6447 44.7469 42.1034 44.9629 41.6992 45.3532Z" fill="url(#paint1_linear_4361_2723)"/>
<defs>
<linearGradient id="paint0_linear_4361_2723" x1="40" y1="10.5" x2="40" y2="69.3681" gradientUnits="userSpaceOnUse">
<stop stop-color="#14F0EE"/>
<stop offset="1" stop-color="#209D9C"/>
</linearGradient>
<linearGradient id="paint1_linear_4361_2723" x1="39.4379" y1="44.7517" x2="39.4379" y2="56.5374" gradientUnits="userSpaceOnUse">
<stop stop-color="#14F0EE"/>
<stop offset="1" stop-color="#209D9C"/>
</linearGradient>
</defs>
</svg>
