<svg width="60" height="61" viewBox="0 0 60 61" fill="none" xmlns="http://www.w3.org/2000/svg">
<path d="M30 0.5C31.5049 0.500004 32.9973 0.643537 34.4834 0.849609C37.1624 1.22433 39.7171 2.02345 42.1963 3.09766C47.0547 5.20236 51.1946 8.70667 54.3232 12.9473C57.5205 17.3003 59.3692 22.5155 59.875 27.874C60.3932 33.3448 59.2821 38.8971 56.8779 43.8184C54.5611 48.5586 50.9075 52.5993 46.5361 55.5283C42.0399 58.5386 36.7066 60.2117 31.3174 60.4678C25.8657 60.7238 20.3577 59.4254 15.5742 56.8086C10.9594 54.2855 7.03129 50.4878 4.30859 45.9912C1.49239 41.3448 0.00632802 35.924 0 30.4971C0 29.0981 1.14917 28.0605 2.49805 27.998C3.84685 27.9357 4.99609 29.1918 4.99609 30.4971C4.99611 31.5733 5.05611 32.6495 5.18066 33.7178C5.49814 35.93 6.08265 38.0974 6.91699 40.168C7.79359 42.1858 8.90686 44.0883 10.2314 45.8418C11.5373 47.4801 13.0294 48.9669 14.6689 50.2764C16.445 51.6167 18.3735 52.7406 20.4199 53.6211C22.4608 54.4379 24.5862 55.0012 26.7588 55.3145C28.9085 55.5634 31.0866 55.5626 33.2363 55.3135C35.4407 54.9953 37.6005 54.4128 39.6641 53.5811C41.6803 52.705 43.5807 51.592 45.333 50.2686C46.9727 48.9618 48.4611 47.4692 49.7715 45.8281C51.1109 44.0529 52.2341 42.1255 53.1143 40.0801C53.9315 38.0382 54.4962 35.912 54.8096 33.7383C55.0585 31.5889 55.0584 29.4111 54.8096 27.2617C54.4911 25.0538 53.9067 22.8907 53.0732 20.8242C52.1965 18.8076 51.083 16.9067 49.7588 15.1543C48.4535 13.5173 46.9627 12.0312 45.3242 10.7227C43.5445 9.3796 41.6118 8.25337 39.5605 7.37207C37.5154 6.55484 35.3851 5.99246 33.208 5.68066C31.0552 5.43051 28.8773 5.43146 26.7207 5.68652C24.5309 6.00381 22.3904 6.5851 20.3389 7.41211C18.3193 8.29172 16.4138 9.40546 14.6562 10.7344C14.1163 11.1651 13.5923 11.6154 13.0859 12.085H14.9941C16.3926 12.0852 17.4285 13.2281 17.4912 14.583C17.5537 15.9319 16.2992 17.0818 14.9941 17.082H6.01953C4.66462 17.0818 3.52246 15.9319 3.52246 14.583V5.6084C3.52271 4.20982 4.66476 3.17301 6.01953 3.11035C7.36825 3.0479 8.51731 4.30328 8.51758 5.6084V9.56152C8.72452 9.34847 8.93471 9.13845 9.14844 8.93164C13.4636 4.77221 19.0655 1.86747 24.998 0.930664C26.6528 0.668377 28.3202 0.5 30 0.5Z" fill="url(#paint0_linear_4361_2742)"/>
<path d="M24.4242 15.5981C25.7973 15.6662 27.1007 16.2416 28.0775 17.2183C29.1193 18.2601 29.7043 19.6737 29.7045 21.147V26.1509H34.7074L34.9672 26.1636C36.2475 26.2936 37.2473 27.3754 37.2474 28.6899C37.2474 30.0046 36.2475 31.0863 34.9672 31.2163L34.7074 31.229H29.7045V37.7046C29.7268 38.5527 30.0427 39.3691 30.6 40.0132C31.186 40.6901 31.999 41.1293 32.8851 41.2495C33.363 41.2926 33.8446 41.2377 34.3002 41.0864C34.7642 40.9323 35.1907 40.6823 35.5521 40.353C35.6733 40.2426 35.785 40.1232 35.889 39.9976C34.7589 39.3523 33.9965 38.1363 33.9965 36.7417C33.9966 34.6722 35.6743 32.9946 37.7435 32.9946C38.5289 32.9946 39.2575 33.2368 39.8597 33.6499C40.403 33.9228 40.8472 34.3885 41.0824 34.9858L41.1439 35.1704C41.3048 35.5181 41.4147 35.894 41.4623 36.2896L41.6771 37.0542L41.7181 37.2202C41.7531 37.3872 41.771 37.5581 41.7719 37.729C41.7775 38.9285 41.5311 40.1159 41.0492 41.2144C40.5671 42.313 39.8598 43.2989 38.973 44.1069C38.0863 44.915 37.0393 45.5276 35.9008 45.9058C34.9045 46.2366 33.8571 46.3819 32.8109 46.3345L32.3636 46.3022C32.3417 46.3001 32.3191 46.2972 32.2972 46.2944C30.1499 46.0269 28.1775 44.9734 26.7611 43.3374C25.3559 41.7139 24.5972 39.6307 24.6273 37.4849H24.6263V31.229H22.641C21.2387 31.229 20.1019 30.0923 20.1019 28.6899C20.1021 27.2877 21.2387 26.1509 22.641 26.1509H24.6263V21.147C24.6262 21.0204 24.5761 20.8985 24.4867 20.8091C24.4196 20.7421 24.3341 20.6975 24.2426 20.6792L24.1488 20.6694C24.0223 20.6695 23.9004 20.7196 23.8109 20.8091C23.7215 20.8985 23.6714 21.0204 23.6713 21.147C23.6713 22.5493 22.5345 23.686 21.1322 23.686C19.73 23.6859 18.5931 22.5492 18.5931 21.147C18.5933 19.6737 19.1784 18.2601 20.2201 17.2183C21.2619 16.1764 22.6754 15.5914 24.1488 15.5913L24.4242 15.5981Z" fill="url(#paint1_linear_4361_2742)"/>
<defs>
<linearGradient id="paint0_linear_4361_2742" x1="30" y1="0.5" x2="30" y2="60.4995" gradientUnits="userSpaceOnUse">
<stop stop-color="#14F0EE"/>
<stop offset="1" stop-color="#209D9C"/>
</linearGradient>
<linearGradient id="paint1_linear_4361_2742" x1="30.1825" y1="15.5913" x2="30.1825" y2="46.3432" gradientUnits="userSpaceOnUse">
<stop stop-color="#14F0EE"/>
<stop offset="1" stop-color="#209D9C"/>
</linearGradient>
</defs>
</svg>
