<svg width="80" height="80" viewBox="0 0 80 80" fill="none" xmlns="http://www.w3.org/2000/svg">
<g id="wallet">
<g id="wallet_2">
<path id="Vector" d="M62.4428 24.7318L49.1752 13.5266C48.4309 12.8946 47.492 12.5333 46.5131 12.5022C45.5343 12.4711 44.574 12.7721 43.7906 13.3555L38.0399 17.6323L34.4214 14.0398C33.6143 13.2432 32.5225 12.7961 31.3845 12.7961C30.2465 12.7961 29.1547 13.2432 28.3476 14.0398L17.5784 24.8387C16.0403 25.0494 14.6301 25.8028 13.6057 26.9613C12.5813 28.1197 12.0113 29.6056 12 31.1471V61.0848C12 62.7862 12.6808 64.4179 13.8925 65.621C15.1043 66.8241 16.7478 67.5 18.4615 67.5H61.5382C63.2519 67.5 64.8954 66.8241 66.1072 65.621C67.3189 64.4179 67.9997 62.7862 67.9997 61.0848V31.1471C68.0151 29.5904 67.4599 28.0812 66.4375 26.9009C65.4151 25.7206 63.9953 24.9497 62.4428 24.7318ZM63.692 50.3927H59.3843C58.2419 50.3927 57.1462 49.9421 56.3384 49.1401C55.5305 48.338 55.0767 47.2502 55.0767 46.1159C55.0767 44.9816 55.5305 43.8938 56.3384 43.0917C57.1462 42.2897 58.2419 41.8391 59.3843 41.8391H63.692V50.3927ZM46.4613 16.7769L55.7228 24.7318H45.1906L41.1198 20.6902L46.4613 16.7769ZM31.3845 17.0549L39.1168 24.7318H23.6522L31.3845 17.0549ZM61.5382 63.2232H18.4615C17.8903 63.2232 17.3424 62.9979 16.9385 62.5969C16.5346 62.1958 16.3077 61.6519 16.3077 61.0848V31.1471C16.3077 30.5799 16.5346 30.036 16.9385 29.635C17.3424 29.2339 17.8903 29.0086 18.4615 29.0086H61.5382C62.1094 29.0086 62.6573 29.2339 63.0612 29.635C63.4651 30.036 63.692 30.5799 63.692 31.1471V37.5623H59.3843C57.0994 37.5623 54.9081 38.4635 53.2924 40.0676C51.6767 41.6717 50.769 43.8473 50.769 46.1159C50.769 48.3845 51.6767 50.5601 53.2924 52.1642C54.9081 53.7684 57.0994 54.6695 59.3843 54.6695H63.692V61.0848C63.692 61.6519 63.4651 62.1958 63.0612 62.5969C62.6573 62.9979 62.1094 63.2232 61.5382 63.2232Z" fill="url(#paint0_linear_4361_2732)"/>
<path id="Vector_2" d="M57.725 44.2395C57.2682 44.7186 57.0092 45.3526 57 46.0145C57 46.6776 57.2634 47.3135 57.7322 47.7823C58.2011 48.2512 58.837 48.5145 59.5 48.5145C60.163 48.5145 60.7989 48.2512 61.2678 47.7823C61.7366 47.3135 62 46.6776 62 46.0145C62.0029 45.518 61.8578 45.0318 61.5833 44.618C61.3088 44.2042 60.9173 43.8815 60.4587 43.6911C60.0001 43.5007 59.4952 43.4512 59.0083 43.5488C58.5214 43.6465 58.0747 43.887 57.725 44.2395Z" fill="#1DD0CF"/>
</g>
</g>
<defs>
<linearGradient id="paint0_linear_4361_2732" x1="40" y1="12.5" x2="40" y2="67.5" gradientUnits="userSpaceOnUse">
<stop stop-color="#14F0EE"/>
<stop offset="1" stop-color="#209D9C"/>
</linearGradient>
</defs>
</svg>
