<svg width="32" height="32" viewBox="0 0 32 32" fill="none" xmlns="http://www.w3.org/2000/svg">
<mask id="mask0_7151_19338" style="mask-type:luminance" maskUnits="userSpaceOnUse" x="0" y="0" width="32" height="32">
<path d="M32 0H0V32H32V0Z" fill="white"/>
</mask>
<g mask="url(#mask0_7151_19338)">
<path d="M31.4144 3.49048H27.0012L20.0168 10.2898C18.9942 11.279 17.6268 11.8313 16.2041 11.8298C14.7809 11.8317 13.4128 11.2793 12.3899 10.2898L5.41166 3.49048H0.993896L10.1841 12.4411C13.513 15.6814 18.9061 15.6814 22.2319 12.4411L31.4144 3.49048ZM0.99545 28.3794H5.39301L12.4055 21.5582C13.4243 20.5721 14.7877 20.0224 16.2057 20.026C17.6275 20.026 18.9932 20.5767 20.0059 21.5582L27.0183 28.3794H31.4144L22.2055 19.4178C18.889 16.1931 13.5177 16.1931 10.2043 19.4178L0.99545 28.3794Z" fill="#892CDC"/>
<path d="M16.7369 2.58615C16.5251 2.41045 16.2599 2.31445 15.9863 2.31445C15.7127 2.31445 15.4475 2.41045 15.2357 2.58615C14.1707 3.4562 11.9735 5.35636 8.6434 8.73388C5.31329 12.1114 3.43908 14.3405 2.58191 15.42C2.40867 15.6348 2.31403 15.9038 2.31403 16.1813C2.31403 16.4588 2.40867 16.7278 2.58191 16.9425C3.43908 18.0227 5.31263 20.2512 8.6434 23.6286C11.9735 27.0061 14.1714 28.907 15.2357 29.777C15.4475 29.9527 15.7127 30.0487 15.9863 30.0487C16.2599 30.0487 16.5251 29.9527 16.7369 29.777C17.8019 28.907 19.9991 27.0061 23.3292 23.6286C26.6593 20.2512 28.5335 18.022 29.3906 16.9425C29.5639 16.7278 29.6585 16.4588 29.6585 16.1813C29.6585 15.9038 29.5639 15.6348 29.3906 15.42C28.5328 14.3405 26.6599 12.1114 23.3292 8.73388C19.9991 5.35636 17.8012 3.4562 16.7369 2.58615Z" stroke="#892CDC" stroke-width="0.585366" stroke-linecap="round" stroke-linejoin="round"/>
</g>
</svg>
