<svg xmlns="http://www.w3.org/2000/svg" width="40" height="41" fill="none" viewBox="0 0 40 41">
  <g clip-path="url(#a)">
    <path fill="#006564" d="M19.779 24.982a4.502 4.502 0 1 0 0-9.004 4.502 4.502 0 0 0 0 9.004Z"/>
    <path fill="#006564" d="M31.731 15.133h-.001a2.638 2.638 0 0 0-2.637 2.638v2.59a9.244 9.244 0 0 1-18.488 0v-2.59a2.638 2.638 0 0 0-5.275 0v2.542a14.5 14.5 0 0 0 5.771 11.589.812.812 0 0 1 .323.648v7.136c0 .45.364.814.814.814h15.073c.45 0 .814-.365.814-.814v-7.064a.81.81 0 0 1 .327-.65 14.738 14.738 0 0 0 5.916-11.816v-2.385a2.638 2.638 0 0 0-2.637-2.638ZM15.57 8.102c.139.17.21.386.199.606l-.153 2.95a.88.88 0 0 0 1.205.865l2.703-1.075a.881.881 0 0 1 .651 0l2.704 1.075a.88.88 0 0 0 1.204-.864l-.152-2.951a.88.88 0 0 1 .2-.606l1.826-2.218a.88.88 0 0 0-.442-1.408l-2.838-.797a.88.88 0 0 1-.497-.364L20.585.895a.88.88 0 0 0-1.47 0l-1.596 2.42a.88.88 0 0 1-.497.364l-2.838.797a.88.88 0 0 0-.442 1.408l1.827 2.218Zm-3.835 2.926a1.221 1.221 0 0 0 0-1.727L6.898 4.464A1.222 1.222 0 0 0 5.17 6.19l4.837 4.837c.477.477 1.25.477 1.728 0ZM34.83 4.464a1.222 1.222 0 0 0-1.727 0L28.266 9.3a1.221 1.221 0 1 0 1.728 1.727L34.83 6.19a1.221 1.221 0 0 0 0-1.727Z"/>
  </g>
  <defs>
    <clipPath id="a">
      <path fill="#fff" d="M0 .5h40v40H0z"/>
    </clipPath>
  </defs>
</svg>
